<?xml version="1.0" standalone="no"?>
<!DOCTYPE svg PUBLIC "-//W3C//DTD SVG 20010904//EN"
 "http://www.w3.org/TR/2001/REC-SVG-20010904/DTD/svg10.dtd">
<svg version="1.0" xmlns="http://www.w3.org/2000/svg"
 width="32.000000pt" height="32.000000pt" viewBox="0 0 32.000000 32.000000"
 preserveAspectRatio="xMidYMid meet">

<g transform="translate(0.000000,32.000000) scale(0.100000,-0.100000)"
fill="#000000" stroke="none">
<path d="M15 304 c-13 -13 -15 -39 -13 -157 l3 -142 155 0 155 0 3 130 c1 72
0 140 -3 151 -6 25 -34 39 -49 24 -13 -13 -103 -13 -111 0 -9 14 -58 13 -73
-2 -9 -9 -15 -9 -24 0 -16 16 -23 15 -43 -4z m25 -144 c0 -87 -4 -140 -10
-140 -6 0 -10 51 -10 133 0 117 3 147 17 147 2 0 3 -63 3 -140z m100 115 c0
-18 -5 -25 -20 -25 -15 0 -20 7 -20 25 0 18 5 25 20 25 15 0 20 -7 20 -25z
m160 -121 c0 -83 -4 -134 -10 -134 -6 0 -10 54 -10 141 0 91 4 138 10 134 6
-4 10 -62 10 -141z m-220 116 c0 -5 -4 -10 -10 -10 -5 0 -10 5 -10 10 0 6 5
10 10 10 6 0 10 -4 10 -10z m180 0 c0 -5 -22 -10 -50 -10 -27 0 -50 5 -50 10
0 6 23 10 50 10 28 0 50 -4 50 -10z m-160 -55 c5 -14 14 -25 20 -25 6 0 15 11
20 25 9 23 15 25 65 25 l55 0 0 -110 0 -110 -100 0 -100 0 0 110 c0 92 3 110
15 110 9 0 20 -11 25 -25z m30 5 c0 -5 -4 -10 -10 -10 -5 0 -10 5 -10 10 0 6
5 10 10 10 6 0 10 -4 10 -10z"/>
<path d="M123 164 c-29 -12 -33 -19 -33 -54 0 -36 3 -41 35 -54 31 -13 39 -13
70 0 32 13 35 18 35 54 0 36 -3 41 -36 55 -20 8 -37 15 -38 14 0 0 -16 -7 -33
-15z m62 -14 c8 -13 -20 -24 -41 -16 -20 8 -9 26 16 26 10 0 22 -5 25 -10z
m-51 -26 c10 -4 16 -18 16 -35 0 -27 -2 -29 -20 -19 -12 6 -20 21 -20 35 0 27
1 28 24 19z m76 -19 c0 -14 -8 -29 -20 -35 -18 -10 -20 -8 -20 19 0 26 9 38
33 40 4 1 7 -10 7 -24z"/>
</g>
</svg>
